<svg width="238" height="70" viewBox="0 0 238 70" fill="none" xmlns="http://www.w3.org/2000/svg">
<rect x="2.25806" y="2.25806" width="232.581" height="65.4839" stroke="white" stroke-width="4.51613"/>
<path d="M51.7648 48.9613C55.5884 45.8903 58.5841 43.3763 60.7519 41.4193C62.9196 39.4323 64.7411 37.3699 66.2164 35.2323C67.7218 33.0645 68.4745 30.9419 68.4745 28.8645C68.4745 26.9075 67.9927 25.372 67.0293 24.2581C66.096 23.114 64.5755 22.5419 62.468 22.5419C60.4207 22.5419 58.825 23.1892 57.6809 24.4839C56.5669 25.7484 55.9648 27.4495 55.8745 29.5871H51.9003C52.0207 26.215 53.0443 23.6107 54.9712 21.7742C56.8981 19.9376 59.382 19.0193 62.4228 19.0193C65.5239 19.0193 67.9777 19.8774 69.7841 21.5935C71.6207 23.3097 72.539 25.6731 72.539 28.6839C72.539 31.1828 71.7863 33.6215 70.2809 36C68.8056 38.3484 67.1196 40.4258 65.2228 42.2323C63.3261 44.0086 60.9024 46.086 57.9519 48.4645H73.4874V51.8968H51.7648V48.9613ZM78.2381 35.5935C78.2381 30.415 79.0811 26.3806 80.7671 23.4903C82.4532 20.5699 85.4037 19.1097 89.6188 19.1097C93.8037 19.1097 96.7392 20.5699 98.4252 23.4903C100.111 26.3806 100.954 30.415 100.954 35.5935C100.954 40.8624 100.111 44.957 98.4252 47.8774C96.7392 50.7978 93.8037 52.2581 89.6188 52.2581C85.4037 52.2581 82.4532 50.7978 80.7671 47.8774C79.0811 44.957 78.2381 40.8624 78.2381 35.5935ZM96.8897 35.5935C96.8897 32.9742 96.7091 30.7613 96.3478 28.9548C96.0166 27.1183 95.3091 25.643 94.2252 24.529C93.1714 23.415 91.636 22.8581 89.6188 22.8581C87.5714 22.8581 86.0059 23.415 84.922 24.529C83.8682 25.643 83.1607 27.1183 82.7994 28.9548C82.4682 30.7613 82.3026 32.9742 82.3026 35.5935C82.3026 38.3032 82.4682 40.5763 82.7994 42.4129C83.1607 44.2495 83.8682 45.7247 84.922 46.8387C86.0059 47.9527 87.5714 48.5097 89.6188 48.5097C91.636 48.5097 93.1714 47.9527 94.2252 46.8387C95.3091 45.7247 96.0166 44.2495 96.3478 42.4129C96.7091 40.5763 96.8897 38.3032 96.8897 35.5935ZM119.558 27.0581C121.424 27.0581 123.11 27.4645 124.616 28.2774C126.121 29.0602 127.295 30.2495 128.138 31.8452C129.011 33.4409 129.448 35.3828 129.448 37.671V52.2581H125.383V38.2581C125.383 35.7892 124.766 33.9075 123.532 32.6129C122.297 31.2882 120.611 30.6258 118.474 30.6258C116.306 30.6258 114.575 31.3032 113.28 32.6581C112.016 34.0129 111.383 35.9849 111.383 38.5742V52.2581H107.274V18.8387H111.383V31.0323C112.196 29.7677 113.31 28.7892 114.725 28.0968C116.17 27.4043 117.781 27.0581 119.558 27.0581ZM135.393 27.8258C135.604 25.0559 136.673 22.8882 138.6 21.3226C140.527 19.757 143.025 18.9742 146.096 18.9742C148.144 18.9742 149.905 19.3505 151.38 20.1032C152.886 20.8258 154.015 21.8193 154.767 23.0839C155.55 24.3484 155.942 25.7785 155.942 27.3742C155.942 29.2409 155.4 30.8516 154.316 32.2064C153.262 33.5613 151.877 34.4344 150.161 34.8258V35.0516C152.118 35.5333 153.669 36.4817 154.813 37.8968C155.957 39.3118 156.529 41.1634 156.529 43.4516C156.529 45.1677 156.137 46.7183 155.355 48.1032C154.572 49.4581 153.398 50.5269 151.832 51.3097C150.266 52.0925 148.385 52.4839 146.187 52.4839C142.995 52.4839 140.376 51.6559 138.329 50C136.281 48.314 135.137 45.9355 134.896 42.8645H138.871C139.081 44.671 139.819 46.1462 141.084 47.2903C142.348 48.4344 144.034 49.0064 146.142 49.0064C148.249 49.0064 149.845 48.4645 150.929 47.3806C152.043 46.2667 152.6 44.8366 152.6 43.0903C152.6 40.8323 151.847 39.2064 150.342 38.2129C148.836 37.2193 146.563 36.7226 143.522 36.7226H142.484V33.2903H143.567C146.337 33.2602 148.43 32.8086 149.845 31.9355C151.26 31.0323 151.967 29.6473 151.967 27.7806C151.967 26.1849 151.441 24.9054 150.387 23.9419C149.363 22.9785 147.888 22.4968 145.961 22.4968C144.094 22.4968 142.589 22.9785 141.445 23.9419C140.301 24.9054 139.623 26.2 139.413 27.8258H135.393ZM162.078 35.5935C162.078 30.415 162.921 26.3806 164.607 23.4903C166.293 20.5699 169.243 19.1097 173.458 19.1097C177.643 19.1097 180.579 20.5699 182.265 23.4903C183.951 26.3806 184.794 30.415 184.794 35.5935C184.794 40.8624 183.951 44.957 182.265 47.8774C180.579 50.7978 177.643 52.2581 173.458 52.2581C169.243 52.2581 166.293 50.7978 164.607 47.8774C162.921 44.957 162.078 40.8624 162.078 35.5935ZM180.729 35.5935C180.729 32.9742 180.549 30.7613 180.187 28.9548C179.856 27.1183 179.149 25.643 178.065 24.529C177.011 23.415 175.475 22.8581 173.458 22.8581C171.411 22.8581 169.845 23.415 168.761 24.529C167.708 25.643 167 27.1183 166.639 28.9548C166.308 30.7613 166.142 32.9742 166.142 35.5935C166.142 38.3032 166.308 40.5763 166.639 42.4129C167 44.2495 167.708 45.7247 168.761 46.8387C169.845 47.9527 171.411 48.5097 173.458 48.5097C175.475 48.5097 177.011 47.9527 178.065 46.8387C179.149 45.7247 179.856 44.2495 180.187 42.4129C180.549 40.5763 180.729 38.3032 180.729 35.5935Z" fill="white"/>
</svg>
